<mxfile host="app.diagrams.net" modified="2021-12-07T15:22:38.603Z" agent="5.0 (Windows NT 10.0; Win64; x64) AppleWebKit/537.36 (KHTML, like Gecko) Chrome/94.0.4606.71 Safari/537.36" etag="cmoo-ebzhmHghQWd5rSR" version="15.9.1" type="github">
  <diagram id="Q7AEC-_fKNd9yhNPSurx" name="Page-1">
    <mxGraphModel dx="1422" dy="762" grid="1" gridSize="10" guides="1" tooltips="1" connect="1" arrows="1" fold="1" page="1" pageScale="1" pageWidth="827" pageHeight="1169" math="0" shadow="0">
      <root>
        <mxCell id="0" />
        <mxCell id="1" parent="0" />
        <mxCell id="6gUORLWhg1mMuSl4yJLm-4" style="edgeStyle=orthogonalEdgeStyle;rounded=0;orthogonalLoop=1;jettySize=auto;html=1;exitX=0.5;exitY=1;exitDx=0;exitDy=0;fontSize=14;" parent="1" source="6gUORLWhg1mMuSl4yJLm-1" target="6gUORLWhg1mMuSl4yJLm-3" edge="1">
          <mxGeometry relative="1" as="geometry" />
        </mxCell>
        <mxCell id="6gUORLWhg1mMuSl4yJLm-1" value="&lt;b&gt;Début&lt;/b&gt;&lt;br&gt;zMsg + strNumeroAppel" style="rounded=0;whiteSpace=wrap;html=1;fillColor=#fff2cc;strokeColor=#d6b656;" parent="1" vertex="1">
          <mxGeometry x="190" y="80" width="120" height="60" as="geometry" />
        </mxCell>
        <mxCell id="6gUORLWhg1mMuSl4yJLm-2" value="Process_Cpp\Suivi_Camions\sc_fonc.cpp / IdentifierCamion" style="text;html=1;align=center;verticalAlign=middle;resizable=0;points=[];autosize=1;strokeColor=none;fillColor=none;fontStyle=1;fontSize=14;" parent="1" vertex="1">
          <mxGeometry x="50" y="20" width="420" height="20" as="geometry" />
        </mxCell>
        <mxCell id="6gUORLWhg1mMuSl4yJLm-6" value="" style="edgeStyle=orthogonalEdgeStyle;rounded=0;orthogonalLoop=1;jettySize=auto;html=1;fontSize=14;fillColor=#fff2cc;strokeColor=#d6b656;" parent="1" source="6gUORLWhg1mMuSl4yJLm-3" target="6gUORLWhg1mMuSl4yJLm-5" edge="1">
          <mxGeometry relative="1" as="geometry" />
        </mxCell>
        <mxCell id="6gUORLWhg1mMuSl4yJLm-3" value="strNumeroAppel = &quot;&quot;" style="rounded=0;whiteSpace=wrap;html=1;fontSize=14;fillColor=#fff2cc;strokeColor=#d6b656;" parent="1" vertex="1">
          <mxGeometry x="180" y="180" width="140" height="80" as="geometry" />
        </mxCell>
        <mxCell id="6gUORLWhg1mMuSl4yJLm-8" value="" style="edgeStyle=orthogonalEdgeStyle;rounded=0;orthogonalLoop=1;jettySize=auto;html=1;fontSize=14;fillColor=#fff2cc;strokeColor=#d6b656;" parent="1" source="6gUORLWhg1mMuSl4yJLm-5" target="6gUORLWhg1mMuSl4yJLm-7" edge="1">
          <mxGeometry relative="1" as="geometry" />
        </mxCell>
        <mxCell id="6gUORLWhg1mMuSl4yJLm-5" value="strPriorite = APL_PRIORITE_NORMAL (&quot;N&quot;)" style="rounded=0;whiteSpace=wrap;html=1;fontSize=14;fillColor=#fff2cc;strokeColor=#d6b656;" parent="1" vertex="1">
          <mxGeometry x="155" y="340" width="190" height="100" as="geometry" />
        </mxCell>
        <mxCell id="6gUORLWhg1mMuSl4yJLm-11" style="edgeStyle=orthogonalEdgeStyle;rounded=0;orthogonalLoop=1;jettySize=auto;html=1;exitX=1;exitY=0.5;exitDx=0;exitDy=0;entryX=0.5;entryY=0;entryDx=0;entryDy=0;fontSize=10;fillColor=#fff2cc;strokeColor=#d6b656;" parent="1" source="6gUORLWhg1mMuSl4yJLm-7" target="6gUORLWhg1mMuSl4yJLm-9" edge="1">
          <mxGeometry relative="1" as="geometry" />
        </mxCell>
        <mxCell id="6gUORLWhg1mMuSl4yJLm-13" value="" style="edgeStyle=orthogonalEdgeStyle;rounded=0;orthogonalLoop=1;jettySize=auto;html=1;fontSize=10;" parent="1" source="6gUORLWhg1mMuSl4yJLm-7" target="6gUORLWhg1mMuSl4yJLm-12" edge="1">
          <mxGeometry relative="1" as="geometry" />
        </mxCell>
        <mxCell id="6gUORLWhg1mMuSl4yJLm-7" value="&lt;font style=&quot;font-size: 10px&quot;&gt;zMsg.type_entree == ENT_LIV_PROD_SIDE&lt;br&gt;ou &lt;br&gt;ENT_LIV_PROD_NON_SIDE&lt;/font&gt;" style="rhombus;whiteSpace=wrap;html=1;rounded=0;fontSize=14;strokeColor=#d6b656;fillColor=#fff2cc;" parent="1" vertex="1">
          <mxGeometry x="10" y="490" width="180" height="200" as="geometry" />
        </mxCell>
        <mxCell id="6gUORLWhg1mMuSl4yJLm-17" value="" style="edgeStyle=orthogonalEdgeStyle;rounded=0;orthogonalLoop=1;jettySize=auto;html=1;fontSize=10;" parent="1" source="6gUORLWhg1mMuSl4yJLm-9" target="6gUORLWhg1mMuSl4yJLm-16" edge="1">
          <mxGeometry relative="1" as="geometry" />
        </mxCell>
        <mxCell id="6gUORLWhg1mMuSl4yJLm-20" style="edgeStyle=orthogonalEdgeStyle;rounded=0;orthogonalLoop=1;jettySize=auto;html=1;exitX=1;exitY=0.5;exitDx=0;exitDy=0;entryX=0.5;entryY=0;entryDx=0;entryDy=0;fontSize=10;fillColor=#fff2cc;strokeColor=#d6b656;" parent="1" source="6gUORLWhg1mMuSl4yJLm-9" target="6gUORLWhg1mMuSl4yJLm-18" edge="1">
          <mxGeometry relative="1" as="geometry" />
        </mxCell>
        <mxCell id="6gUORLWhg1mMuSl4yJLm-9" value="&lt;span style=&quot;font-size: 10px&quot;&gt;zMsg.type_entree == ENT_ENLEV_PROD_DIVERS&lt;/span&gt;" style="rhombus;whiteSpace=wrap;html=1;rounded=0;fontSize=14;strokeColor=#d6b656;fillColor=#fff2cc;" parent="1" vertex="1">
          <mxGeometry x="210" y="675" width="170" height="170" as="geometry" />
        </mxCell>
        <mxCell id="6gUORLWhg1mMuSl4yJLm-12" value="&lt;font&gt;&lt;span style=&quot;font-size: 10px&quot;&gt;appel.strLettreProduit&lt;/span&gt;&lt;br&gt;&lt;span style=&quot;font-size: 10px&quot;&gt;= APL_CLS_LIVRAISON&lt;/span&gt;&lt;br&gt;&lt;font style=&quot;font-size: 16px&quot;&gt;(&quot;&lt;b&gt;L&lt;/b&gt;&quot;)&lt;/font&gt;&lt;/font&gt;" style="whiteSpace=wrap;html=1;rounded=0;fontSize=14;fontColor=#333333;strokeColor=#666666;fillColor=#f5f5f5;" parent="1" vertex="1">
          <mxGeometry x="40" y="730" width="120" height="60" as="geometry" />
        </mxCell>
        <mxCell id="6gUORLWhg1mMuSl4yJLm-16" value="&lt;span style=&quot;font-size: 10px&quot;&gt;appel.strLettreProduit&lt;/span&gt;&lt;br style=&quot;font-size: 10px&quot;&gt;&lt;span style=&quot;font-size: 10px&quot;&gt;= APL_CLS_ENLEV_DIVERS&lt;/span&gt;&lt;br style=&quot;font-size: 10px&quot;&gt;&lt;font style=&quot;font-size: 16px&quot;&gt;(&quot;&lt;b&gt;D&lt;/b&gt;&quot;)&lt;/font&gt;" style="whiteSpace=wrap;html=1;rounded=0;fontSize=14;fontColor=#333333;strokeColor=#666666;fillColor=#f5f5f5;" parent="1" vertex="1">
          <mxGeometry x="227.5" y="980" width="135" height="70" as="geometry" />
        </mxCell>
        <mxCell id="6gUORLWhg1mMuSl4yJLm-24" value="" style="edgeStyle=orthogonalEdgeStyle;rounded=0;orthogonalLoop=1;jettySize=auto;html=1;fontSize=10;fillColor=#fff2cc;strokeColor=#d6b656;" parent="1" source="6gUORLWhg1mMuSl4yJLm-18" target="6gUORLWhg1mMuSl4yJLm-23" edge="1">
          <mxGeometry relative="1" as="geometry" />
        </mxCell>
        <mxCell id="6gUORLWhg1mMuSl4yJLm-18" value="&lt;span style=&quot;font-size: 10px&quot;&gt;zMsg.type_entree == ENT_ENLEV_PROD_SIDE&lt;br&gt;&lt;/span&gt;" style="rhombus;whiteSpace=wrap;html=1;rounded=0;fontSize=14;strokeColor=#d6b656;fillColor=#fff2cc;" parent="1" vertex="1">
          <mxGeometry x="420" y="840" width="160" height="150" as="geometry" />
        </mxCell>
        <mxCell id="6gUORLWhg1mMuSl4yJLm-26" value="" style="edgeStyle=orthogonalEdgeStyle;rounded=0;orthogonalLoop=1;jettySize=auto;html=1;fontSize=10;" parent="1" source="6gUORLWhg1mMuSl4yJLm-23" target="6gUORLWhg1mMuSl4yJLm-25" edge="1">
          <mxGeometry relative="1" as="geometry" />
        </mxCell>
        <mxCell id="6gUORLWhg1mMuSl4yJLm-31" style="edgeStyle=orthogonalEdgeStyle;rounded=0;orthogonalLoop=1;jettySize=auto;html=1;exitX=1;exitY=0.5;exitDx=0;exitDy=0;entryX=0.5;entryY=0;entryDx=0;entryDy=0;fontSize=10;fillColor=#fff2cc;strokeColor=#d6b656;" parent="1" source="6gUORLWhg1mMuSl4yJLm-23" target="6gUORLWhg1mMuSl4yJLm-29" edge="1">
          <mxGeometry relative="1" as="geometry" />
        </mxCell>
        <mxCell id="6gUORLWhg1mMuSl4yJLm-23" value="zMsg.typ_ident == IDENT_AVEC_NUM_CMD&amp;nbsp;&lt;br&gt;&lt;b&gt;OU&lt;/b&gt;&lt;br&gt;&amp;nbsp;IDENT_SANS_NUM_CMD" style="rhombus;whiteSpace=wrap;html=1;rounded=0;fontSize=14;strokeColor=#d6b656;fillColor=#fff2cc;" parent="1" vertex="1">
          <mxGeometry x="380" y="1060" width="240" height="205" as="geometry" />
        </mxCell>
        <mxCell id="6gUORLWhg1mMuSl4yJLm-25" value="appel.strLettreProduit = APL_CLS_GENERIQUE&lt;br&gt;&lt;font style=&quot;font-size: 16px&quot;&gt;(&quot;&lt;b&gt;X&lt;/b&gt;&quot;)&lt;/font&gt;" style="whiteSpace=wrap;html=1;rounded=0;fontSize=14;fontColor=#333333;strokeColor=#666666;fillColor=#f5f5f5;" parent="1" vertex="1">
          <mxGeometry x="410" y="1310" width="180" height="77.5" as="geometry" />
        </mxCell>
        <mxCell id="6gUORLWhg1mMuSl4yJLm-27" value="Enlevement &lt;br&gt;sidérurgique" style="text;html=1;align=center;verticalAlign=middle;resizable=0;points=[];autosize=1;strokeColor=none;fillColor=none;fontSize=10;" parent="1" vertex="1">
          <mxGeometry x="520" y="810" width="70" height="30" as="geometry" />
        </mxCell>
        <mxCell id="6gUORLWhg1mMuSl4yJLm-28" value="Identification sans BE" style="text;html=1;align=center;verticalAlign=middle;resizable=0;points=[];autosize=1;strokeColor=none;fillColor=none;fontSize=10;" parent="1" vertex="1">
          <mxGeometry x="510" y="1270" width="110" height="20" as="geometry" />
        </mxCell>
        <mxCell id="6gUORLWhg1mMuSl4yJLm-35" value="" style="edgeStyle=orthogonalEdgeStyle;rounded=0;orthogonalLoop=1;jettySize=auto;html=1;fontSize=10;" parent="1" source="6gUORLWhg1mMuSl4yJLm-29" target="6gUORLWhg1mMuSl4yJLm-34" edge="1">
          <mxGeometry relative="1" as="geometry" />
        </mxCell>
        <mxCell id="6gUORLWhg1mMuSl4yJLm-53" style="edgeStyle=orthogonalEdgeStyle;rounded=0;orthogonalLoop=1;jettySize=auto;html=1;exitX=1;exitY=0.5;exitDx=0;exitDy=0;entryX=0.5;entryY=0;entryDx=0;entryDy=0;fontSize=10;fontColor=#CC0000;fillColor=#fff2cc;strokeColor=#d6b656;" parent="1" source="6gUORLWhg1mMuSl4yJLm-29" target="6gUORLWhg1mMuSl4yJLm-36" edge="1">
          <mxGeometry relative="1" as="geometry" />
        </mxCell>
        <mxCell id="6gUORLWhg1mMuSl4yJLm-29" value="Lecture &lt;br&gt;ICBE dans &lt;br&gt;T_ICBE&lt;br&gt;==&lt;br&gt;False" style="rhombus;whiteSpace=wrap;html=1;rounded=0;fontSize=14;strokeColor=#d6b656;fillColor=#fff2cc;" parent="1" vertex="1">
          <mxGeometry x="660" y="1210" width="150" height="160" as="geometry" />
        </mxCell>
        <mxCell id="6gUORLWhg1mMuSl4yJLm-32" value="Recherche ICBE dans MER" style="text;html=1;align=center;verticalAlign=middle;resizable=0;points=[];autosize=1;strokeColor=none;fillColor=none;fontSize=10;" parent="1" vertex="1">
          <mxGeometry x="740" y="1180" width="140" height="20" as="geometry" />
        </mxCell>
        <mxCell id="6gUORLWhg1mMuSl4yJLm-34" value="&lt;b&gt;&lt;font color=&quot;#cc0000&quot;&gt;Sortie:&lt;/font&gt;&lt;/b&gt;&lt;br&gt;ERR_SQL" style="whiteSpace=wrap;html=1;rounded=0;fontSize=14;fontColor=#333333;strokeColor=#666666;fillColor=#f5f5f5;" parent="1" vertex="1">
          <mxGeometry x="675" y="1410" width="120" height="60" as="geometry" />
        </mxCell>
        <mxCell id="6gUORLWhg1mMuSl4yJLm-42" style="edgeStyle=orthogonalEdgeStyle;rounded=0;orthogonalLoop=1;jettySize=auto;html=1;exitX=1;exitY=0.5;exitDx=0;exitDy=0;entryX=0.5;entryY=0;entryDx=0;entryDy=0;fontSize=10;fontColor=#CC0000;" parent="1" source="6gUORLWhg1mMuSl4yJLm-36" target="6gUORLWhg1mMuSl4yJLm-41" edge="1">
          <mxGeometry relative="1" as="geometry" />
        </mxCell>
        <mxCell id="6gUORLWhg1mMuSl4yJLm-54" style="edgeStyle=orthogonalEdgeStyle;rounded=0;orthogonalLoop=1;jettySize=auto;html=1;exitX=0.5;exitY=1;exitDx=0;exitDy=0;fontSize=10;fontColor=#CC0000;fillColor=#fff2cc;strokeColor=#d6b656;" parent="1" source="6gUORLWhg1mMuSl4yJLm-36" target="6gUORLWhg1mMuSl4yJLm-39" edge="1">
          <mxGeometry relative="1" as="geometry" />
        </mxCell>
        <mxCell id="6gUORLWhg1mMuSl4yJLm-36" value="ICBE &lt;br&gt;n&#39;existe pas dans &lt;br&gt;MER" style="rhombus;whiteSpace=wrap;html=1;rounded=0;fontSize=14;strokeColor=#d6b656;fillColor=#fff2cc;" parent="1" vertex="1">
          <mxGeometry x="840" y="1315" width="130" height="140" as="geometry" />
        </mxCell>
        <mxCell id="6gUORLWhg1mMuSl4yJLm-39" value="appel.strLettreProduit = APL_CLS_GENERIQUE&lt;br&gt;&lt;span style=&quot;font-size: 16px&quot;&gt;(&quot;&lt;/span&gt;&lt;b style=&quot;font-size: 16px&quot;&gt;X&lt;/b&gt;&lt;span style=&quot;font-size: 16px&quot;&gt;&quot;)&lt;/span&gt;" style="whiteSpace=wrap;html=1;rounded=0;fontSize=14;strokeColor=#d6b656;fillColor=#fff2cc;" parent="1" vertex="1">
          <mxGeometry x="815" y="1600" width="180" height="77.5" as="geometry" />
        </mxCell>
        <mxCell id="PxRlrsnn2dQ2GLYWGXWF-2" value="" style="edgeStyle=orthogonalEdgeStyle;rounded=0;orthogonalLoop=1;jettySize=auto;html=1;fontSize=16;" edge="1" parent="1" source="6gUORLWhg1mMuSl4yJLm-41" target="PxRlrsnn2dQ2GLYWGXWF-1">
          <mxGeometry relative="1" as="geometry" />
        </mxCell>
        <mxCell id="6gUORLWhg1mMuSl4yJLm-41" value="appel.strLettreProduit = icbe.strLettreProduit" style="whiteSpace=wrap;html=1;rounded=0;fontSize=14;fontColor=#333333;strokeColor=#666666;fillColor=#f5f5f5;" parent="1" vertex="1">
          <mxGeometry x="1040" y="1495" width="180" height="77.5" as="geometry" />
        </mxCell>
        <mxCell id="PxRlrsnn2dQ2GLYWGXWF-4" style="edgeStyle=orthogonalEdgeStyle;rounded=0;orthogonalLoop=1;jettySize=auto;html=1;exitX=0.5;exitY=1;exitDx=0;exitDy=0;fontSize=16;" edge="1" parent="1" source="PxRlrsnn2dQ2GLYWGXWF-1" target="PxRlrsnn2dQ2GLYWGXWF-3">
          <mxGeometry relative="1" as="geometry" />
        </mxCell>
        <mxCell id="PxRlrsnn2dQ2GLYWGXWF-6" style="edgeStyle=orthogonalEdgeStyle;rounded=0;orthogonalLoop=1;jettySize=auto;html=1;exitX=1;exitY=0.5;exitDx=0;exitDy=0;fontSize=16;" edge="1" parent="1" source="PxRlrsnn2dQ2GLYWGXWF-1" target="PxRlrsnn2dQ2GLYWGXWF-5">
          <mxGeometry relative="1" as="geometry" />
        </mxCell>
        <mxCell id="PxRlrsnn2dQ2GLYWGXWF-1" value="&lt;span&gt;icbe.strLettreProduit &lt;br&gt;== &quot;&quot; OU &quot; &quot;&lt;/span&gt;" style="rhombus;whiteSpace=wrap;html=1;rounded=0;fontSize=14;fontColor=#333333;strokeColor=#666666;fillColor=#f5f5f5;" vertex="1" parent="1">
          <mxGeometry x="1045" y="1605" width="170" height="148.75" as="geometry" />
        </mxCell>
        <mxCell id="PxRlrsnn2dQ2GLYWGXWF-3" value="appel.strLettreProduit = APL_CLS_GENERIQUE&lt;br&gt;&lt;span style=&quot;font-size: 16px&quot;&gt;(&quot;&lt;/span&gt;&lt;b style=&quot;font-size: 16px&quot;&gt;X&lt;/b&gt;&lt;span style=&quot;font-size: 16px&quot;&gt;&quot;)&lt;/span&gt;" style="whiteSpace=wrap;html=1;rounded=0;fontSize=14;strokeColor=#666666;fillColor=#f5f5f5;fontColor=#333333;" vertex="1" parent="1">
          <mxGeometry x="1040" y="1790" width="180" height="77.5" as="geometry" />
        </mxCell>
        <mxCell id="PxRlrsnn2dQ2GLYWGXWF-8" style="edgeStyle=orthogonalEdgeStyle;rounded=0;orthogonalLoop=1;jettySize=auto;html=1;exitX=0.5;exitY=1;exitDx=0;exitDy=0;entryX=0.5;entryY=0;entryDx=0;entryDy=0;fontSize=16;" edge="1" parent="1" source="PxRlrsnn2dQ2GLYWGXWF-5" target="PxRlrsnn2dQ2GLYWGXWF-7">
          <mxGeometry relative="1" as="geometry" />
        </mxCell>
        <mxCell id="PxRlrsnn2dQ2GLYWGXWF-5" value="appel.strPortePrevue =&amp;nbsp; icbe.strPortePrevue" style="whiteSpace=wrap;html=1;rounded=0;fontSize=14;strokeColor=#666666;fillColor=#f5f5f5;fontColor=#333333;" vertex="1" parent="1">
          <mxGeometry x="1260" y="1790" width="140" height="60" as="geometry" />
        </mxCell>
        <mxCell id="PxRlrsnn2dQ2GLYWGXWF-7" value="strPriorite =&amp;nbsp; icbe.strPriorite" style="whiteSpace=wrap;html=1;rounded=0;fontSize=14;strokeColor=#666666;fillColor=#f5f5f5;fontColor=#333333;" vertex="1" parent="1">
          <mxGeometry x="1260" y="1890" width="140" height="60" as="geometry" />
        </mxCell>
        <mxCell id="PxRlrsnn2dQ2GLYWGXWF-9" value="&lt;font style=&quot;font-size: 18px&quot;&gt;Cas : table T_ICBE non-alimentée&lt;/font&gt;" style="text;html=1;align=center;verticalAlign=middle;resizable=0;points=[];autosize=1;strokeColor=none;fillColor=none;fontSize=16;" vertex="1" parent="1">
          <mxGeometry x="500" y="200" width="290" height="20" as="geometry" />
        </mxCell>
      </root>
    </mxGraphModel>
  </diagram>
</mxfile>
